<?xml version="1.0" encoding="UTF-8"?>
<svg id="Layer_1" xmlns="http://www.w3.org/2000/svg" version="1.1" viewBox="0 0 1080 1080">
  <!-- Generator: Adobe Illustrator 30.1.0, SVG Export Plug-In . SVG Version: 2.1.1 Build 136)  -->
  <defs>
    <style>
      .st0 {
        stroke-width: 1.4px;
      }

      .st0, .st1 {
        fill: none;
        stroke: red;
        stroke-linecap: round;
        stroke-linejoin: round;
      }

      .st1 {
        stroke-width: 1.5px;
      }
    </style>
  </defs>
  <g>
    <path class="st1" d="M30.5,470.8l31.6-25c26.4-20.8,52.6-41.7,77.2-64.7,7.8-7.3,15.5-15.2,18.9-25.3-8.3-1.3-16.3,4.1-22.7,9.7-22,18.9-39.7,42.3-56.5,65.9-9.2,12.9-18.6,26.4-23.1,41.6-1.2,4-1.9,8.8.9,12,3.7,4.2,10.5,2.8,15.7.4,20.9-9.4,38.8-25,52.1-43.8,2.6-3.7,5.1-7.6,5.1-12.2s-3.7-9.2-8.2-8.6c-4.2.6-6.7,5.9-5.3,10s5.7,6.6,10,7.2,8.5-.3,12.7-1.5c27.1-6.6,53.6-15.4,79.2-26.4,2.2-.9,4.4-1.9,6-3.7s2-4.7.7-6.6c-17.7-1.2-32.5,12.6-44.8,25.2-9.8,10-20.1,20.9-22.3,34.7-.3,1.5-.4,3.2.1,4.5,1.2,2.8,4.5,4,7.6,4.2,11.6,1.2,23-3.2,33.4-8.5,13-6.6,25.5-14.5,36.9-23.6"/>
    <path class="st1" d="M297.1,405.1c4.2-.6,6.3-6.3,4.2-10.1s-7-5.3-11.3-4.7-8.1,2.8-11.7,5c-14.1,8.5-28.3,17.9-36.9,31.9-3.1,5-5.4,10.8-4.1,16.5,2.8,11.4,17.6,14.5,29.1,12.9,35.3-5,63.4-31.3,89-56.2-11,11.3-19.3,25.2-24.2,40.1,8.9,4.2,19-2,26.2-8.8,9.4-8.5,17.7-18,25-28.3,3.8-5.4,7.5-12.6,4.2-18.3-1.5-2.5-4-4.1-6.6-5.1-9.1-3.8-20.4-1.5-27.2,5.7,26.6,11.1,56.1-12.7,84.8-9.2,1.6.1,3.2.4,4.2,1.6,2.2,2.3.6,6.1-1,8.9-9.1,14.9-18,29.7-27.1,44.7,4,2.8,9.4.3,13.5-2.3,28-17.7,55.9-35.6,83.9-53.3-2.3,9.5-4.5,19-6.9,28.6-.6,2.6-1.2,5.6.4,7.6,2.8,3.8,8.8,1.2,12.7-1.6,23.7-17.7,47.4-35.4,71.2-53.2-4.5,12.2-9.2,24.2-13.8,36.3-1.3,3.4-2.5,7.2-.6,10.2,2.8,4.4,9.5,2.9,14.2.7,32.5-14.1,63.5-31.5,92.2-52,6.7-4.7,13.8-10.4,15.1-18.4-22.8,5.1-43.3,19.9-55.3,40.1-3.7,6.1-6.3,14.2-2,19.9,4,5.3,11.7,5.3,18.3,4.2,24.2-4.1,45.5-17.6,66-30.7"/>
  </g>
  <g>
    <path class="st0" d="M395,552.6c-8.1,7.8-16.4,15.7-26.1,21.5-9.7,5.8-21.1,9.6-32.4,8.1-1.1,0-2.4-.4-3.1-1.3-.9-1-.9-2.6-.7-3.9,1.6-13.8,12.3-24.5,22.2-34.4,2.3-2.3,4.6-4.6,5.6-7.6,1-3,.1-6.8-2.6-8.3-2.7-1.4-5.8-.1-8.6,1.1-13.5,6.1-26.5,13.4-38.9,21.7-11.3,7.6-22.4,16.4-28.1,28.7-1.6,3.6-2.7,7.8-.4,11,2.9,4.1,9.1,3.6,13.8,1.9,15.3-5.3,27.7-16.1,39.6-26.8"/>
    <path class="st0" d="M474.2,554c17.4-15.4,34.8-30.9,52.1-46.3-6.7,14-13.4,28-20.1,41.9-.9,1.7-1.6,4.1-.1,5.4,1.6,1.6,4.1.3,5.8-1.1,20.4-15.7,39.2-33.5,60.9-47.3,2-1.3,4.7-2.4,6.3-.7,1,1.1.7,3,.3,4.6-2.3,8-5.8,15.5-10.6,22.2-1.9,2.6-3.9,5.1-4.6,8.1s.4,6.8,3.3,8c3,1.1,6.3-.7,8.8-2.4,24.5-16.5,48.9-33.2,73.4-49.8-6.6,11.7-13.1,23.5-19.7,35.4-1.4,2.6-2.9,5.8-1.3,8.3,2,3,6.4,2.1,9.7.9,34.1-13.3,59-42.6,89.3-63.3-14.1,13.3-27,28-38.4,43.8-1.3,1.9-2.6,3.7-2.6,6,0,3.6,3.9,6,7.4,6s6.8-1.9,9.8-3.6c23.7-14,46.1-30.4,66.6-48.6-11,10.3-20.3,22.1-29.4,33.9-42.5,55.2-82.4,112.2-119.9,170.9-8.8,14-17.7,28.1-23,43.6,7.1-7,13.1-15,17.7-23.8"/>
    <path class="st0" d="M773,446.9c57-13.8,114.5-27.7,173.1-31.5,8.6-.6,17.1-.9,25.5-1,.7,0,1.7,0,2,.7s-1.1,1.3-1.1.6"/>
    <path class="st0" d="M882.1,401.6c-45.4,43.9-90,90.8-115.5,148.7-.6,1.3,1.3,3.1,1.3,1.9"/>
    <path class="st0" d="M959.5,399.6c-14,18.3-28.1,36.5-42.1,54.8-7.1,9.3-14.4,18.7-20.7,28.5-5,7.8-9.6,16.3-10.8,25.5,4.4,2.6,9.8-.7,13.8-4,20.5-16.7,41.2-33.2,61.8-49.9,1.7,1.6.7,4.6-.6,6.6-4.7,8.3-9.6,16.7-14.3,25-1.6,2.9-2.9,7.3,0,8.8,1.7,1,3.9,0,5.7-.9,19.7-10.3,38.4-22.4,55.6-36.2"/>
  </g>
</svg>