<?xml version="1.0" encoding="UTF-8"?>
<svg id="Layer_1" xmlns="http://www.w3.org/2000/svg" version="1.1" viewBox="0 0 1080 1080">
  <!-- Generator: Adobe Illustrator 30.1.0, SVG Export Plug-In . SVG Version: 2.1.1 Build 136)  -->
  <defs>
    <style>
      .st0 {
        fill: none;
        stroke: #ed1f24;
        stroke-miterlimit: 10;
      }
    </style>
  </defs>
  <path class="st0" d="M275.4,504.8c-8.2,1.6-18.6,7.5-17.1,11.4,11.1-4.5,20.5-13.1,26.1-23.6,1.9-3.5,3.3-8,1.1-11.3-3.4-5.1-11.4-2.5-16.5.8-38.4,24.5-67.7,62.8-81.4,106.2-4,12.8-6.2,28.2,2.7,38.2,9.2,10.5,25.8,9.7,39.2,5.8,25.7-7.5,49.1-27.7,64.8-49.5"/>
  <path class="st0" d="M340.8,541.2c-18.7,14.2-37.8,28.7-51.3,47.9-2.9,4.1-5.5,9.2-3.8,13.8,1.6,4.3,6.7,6.6,11.3,6.3s8.8-2.6,12.7-5.2c11.4-7.4,20.8-18.5,28.7-29.5"/>
  <path class="st0" d="M349,548c-7,7.5-10.2,16.4-10.6,26.6-.3,6,1.4,13,7,15.4,3,1.3,6.5.8,9.4-.5s5.5-3.5,7.9-5.6c15.4-13.6,31.1-30,44.8-45.3"/>
  <path class="st0" d="M448.2,471.5c-17.4,28.6-34.7,57.2-52.1,85.8-1.9,3.1-3.8,6.2-4.6,9.7s-.6,7.4,1.5,10.3c3,4,8.7,4.9,13.6,4.4,10.2-1,19.5-6.3,28.1-11.8,13-8.3,25.3-17.5,37.5-26.9,14.4-11,28.6-22.3,41-35.5,2.9-3.1,5.8-7.7,3.4-11.2s-7.8-2.2-11.6-.3c-17.8,8.9-32,23.9-42.5,40.8-2.6,4.2-5.1,8.8-5.8,13.7s.9,10.5,5,13.4c5.4,3.9,12.9,1.9,19.1-.5,22.5-8.7,43.4-21.1,64.1-33.5"/>
  <path class="st0" d="M347.7,507.2c70.9-14.7,141.5-30.3,212-46.8"/>
  <path class="st0" d="M587.6,494.5c1.1-1.4-.5-3.7-2.3-3.9s-3.5.9-5,2c-9.5,6.9-18.2,14.8-26.1,23.5-4.7,5.2-9.2,11-10.6,17.9-.6,3.2-.4,6.9,1.8,9.3,2.3,2.5,6,3.1,9.5,3,6.7-.3,13.1-2.8,18.8-6.4s8.6-7.3,12.9-12.4"/>
  <path class="st0" d="M609.7,474.2c-31.5,74.2-65.7,147.2-102.7,218.8,4.3-45.5,35.4-87.7,78.1-104.3"/>
  <path class="st0" d="M652.1,465.4c-14.9,14.7-28,31.4-38.7,49.4-1.6,2.6-3.1,5.3-3.5,8.4s.5,6.4,3,8.2c3.5,2.4,8.2.8,12-1.1,19.1-10,33.1-27.4,45.8-44.8,4.3-5.9,8.8-13.2,6.1-20-2.7-6.8-12.1-9.1-18.5-5.7s-9.9,10.9-10.2,18.2c-.3,6.9,1.8,13.9,6.3,19.1s11.5,8.2,18.4,7.4c8.5-1,15.3-7.5,21.3-13.7,14.7-15,29.5-30,44.2-44.9-3.3-.6-6.5,2.2-7.5,5.5s-.2,6.7.6,10,1.7,6.7,1.2,10c-.7,4.1-3.5,7.5-6.5,10.6s-6.1,6-7.7,9.9-1.2,9,2.3,11.4c4,2.8,9.5.8,13.8-1.5,16.3-8.4,38.4-24,52.9-35.2"/>
  <path class="st0" d="M815.5,430.9c-9.4,11.9-18.8,23.7-28.2,35.6-3.7,4.7-7.6,11-4.6,16.1,1.8,3.1,5.6,4.5,9.1,4.4s6.9-1.5,10.2-3c32.3-14.6,61-37.4,82.4-65.6-49.9,66.5-86.6,141.8-122.9,216.6"/>
</svg>