<?xml version="1.0" encoding="UTF-8"?>
<svg id="Layer_1" xmlns="http://www.w3.org/2000/svg" version="1.1" viewBox="0 0 1080 1080">
  <!-- Generator: Adobe Illustrator 30.1.0, SVG Export Plug-In . SVG Version: 2.1.1 Build 136)  -->
  <defs>
    <style>
      .st0 {
        fill: none;
        stroke: red;
        stroke-linecap: round;
        stroke-linejoin: round;
        stroke-width: 10px;
      }
    </style>
  </defs>
  <path class="st0" d="M430.5,522.3c44.7,18.7,94.4,20.3,142.8,21.7l20.8.6c8.1.2,10.5,11.3,3.2,14.7,0,0-.1,0-.2,0-5.9,2.7-12.5,3.3-19,3.9-43.8,3.7-87.8,5-131.8,3.8-5.7-.2-11.6-.3-16.6,2.4-6.6,3.6-9.8,11.1-12.4,18.1-10.7,28.8-19,58.4-24.8,88.5-1.5,8-2.5,17.6,3.5,23.2,7.4,7,19.4,2.9,28.5-1.6,12.3-6,24.6-12.1,37-18.2,20.8-10.2,69.2-28.1,89.8-38.8,52.7-27.5,76-50.8,125.8-83.2,1.1-.7,2.1-1.6,2.9-2.6,4.3-5.8-.6-11.1-5.1-14.6-26.6-20.6-58.9-32.2-88.7-48-50.7-26.9-94.7-66.2-148-87.3-11.8-4.7-26.6-7.9-36,.5-5.8,5.2-7.8,13.6-7,21.3s3.9,15,7,22.1c10.4,23.6,18.1,49.8,28.5,73.4"/>
</svg>