<svg width="320" height="83" viewBox="0 0 320 83" fill="none" xmlns="http://www.w3.org/2000/svg">
<path d="M286.402 59.5334C283.645 60.7507 280.766 61.9068 277.801 62.9949C274.836 64.083 271.85 65.0571 268.781 65.9796C265.712 66.9021 262.56 67.7729 259.392 68.5623C256.225 69.3517 252.975 70.0894 249.75 70.7716C246.526 71.4537 243.184 72.0909 239.864 72.6563C236.544 73.2217 233.222 73.7708 229.89 74.271C226.558 74.7713 223.287 75.2093 219.978 75.6378C216.669 76.0663 213.35 76.4459 210.064 76.8025C206.777 77.1592 203.277 77.5398 199.911 77.861C196.545 78.1823 193.108 78.5169 189.736 78.8056C186.363 79.0943 182.953 79.3734 179.571 79.6132C176.19 79.8531 172.843 80.0862 169.529 80.2964C166.215 80.5065 162.821 80.6813 159.462 80.8493C156.103 81.0174 152.811 81.1557 149.514 81.2615C146.216 81.3673 142.883 81.4798 139.579 81.553C136.275 81.6263 132.968 81.6833 129.693 81.7172C126.418 81.7512 123.175 81.7622 119.929 81.7569C116.683 81.7517 113.43 81.7138 110.21 81.653C106.99 81.5922 103.805 81.5247 100.614 81.4246C97.4228 81.3245 94.2285 81.2082 91.0663 81.0689C87.9041 80.9295 84.7388 80.7739 81.6024 80.579C78.4661 80.3842 75.3681 80.1989 72.2959 79.958C69.5973 79.764 66.9307 79.5471 64.2931 79.2909C61.6555 79.0347 59.1266 78.7746 56.5563 78.4887C53.986 78.2028 51.4416 77.8613 48.9292 77.4969C46.4168 77.1325 43.9717 76.7383 41.5525 76.2887C39.1333 75.839 36.8227 75.3855 34.5349 74.8602C32.2471 74.3349 30.0296 73.7962 27.8701 73.1789C25.7107 72.5617 23.695 71.9339 21.7404 71.2438C19.7858 70.5538 17.9657 69.8043 16.2098 69.0089C14.4539 68.2135 12.8708 67.3683 11.3487 66.4609C9.82666 65.5534 8.5157 64.6057 7.30409 63.6054C6.09244 62.605 5.00606 61.4964 4.13385 60.3639C3.17577 59.1634 2.38737 57.8968 1.84526 56.5832C1.23385 55.0973 0.865578 53.5482 0.852256 51.9483C0.838934 50.3484 1.18053 48.6977 1.95365 47.0153C2.64293 45.467 3.69331 43.9005 5.11416 42.3645C6.44186 40.9137 8.03135 39.4974 9.84438 38.106C11.6574 36.7145 13.697 35.3642 15.8929 34.0685C18.0887 32.7727 20.4056 31.5382 22.8053 30.3554C25.3395 29.1132 27.9917 27.916 30.7267 26.7705C33.4616 25.625 36.4139 24.4718 39.3817 23.4C42.3494 22.3282 45.3648 21.3147 48.4246 20.3434C51.4845 19.3721 54.6302 18.4688 57.7822 17.598C60.9341 16.7272 64.1016 15.9378 67.3104 15.1743C70.5192 14.4107 73.8078 13.6826 77.0673 12.9937C80.3269 12.3048 83.5988 11.681 86.9091 11.0668C90.2193 10.4526 93.5388 9.88725 96.8294 9.36113C100.12 8.83501 103.452 8.33474 106.752 7.85746C110.052 7.38017 113.326 6.95841 116.6 6.53666C120.123 6.08423 123.618 5.67107 127.115 5.27418C130.613 4.87729 134.081 4.51966 137.55 4.16203C141.018 3.8044 144.531 3.48889 148.012 3.19636C151.493 2.90384 154.977 2.62759 158.429 2.37432C161.881 2.12106 165.339 1.90035 168.765 1.70262C172.191 1.50489 175.656 1.31673 179.091 1.16783C182.527 1.01893 185.927 0.876734 189.301 0.790078C192.676 0.703422 196.12 0.603351 199.501 0.549248C202.881 0.495145 206.265 0.457318 209.62 0.45875C212.974 0.460183 216.294 0.468321 219.584 0.515722C222.875 0.563121 225.986 0.627781 229.175 0.71158C232.034 0.790637 234.861 0.89268 237.655 1.0177C240.45 1.14273 243.325 1.30317 246.094 1.48373C248.863 1.66429 251.676 1.88697 254.384 2.12978C257.092 2.37258 259.806 2.64794 262.456 2.96927C265.106 3.29059 267.689 3.64161 270.246 4.04816C272.803 4.45471 275.292 4.89096 277.718 5.37316C280.143 5.85538 282.543 6.39312 284.843 6.98354C287.143 7.57396 289.376 8.19407 291.513 8.88314C293.65 9.5722 295.684 10.2977 297.622 11.0921C299.56 11.8865 301.399 12.7336 303.103 13.64C304.686 14.4852 306.167 15.3668 307.513 16.3078C308.859 17.2488 310.109 18.2588 311.253 19.2888C312.397 20.3189 313.375 21.4313 314.247 22.5639C315.12 23.6964 315.848 24.8395 316.442 26.042C317.036 27.2445 317.489 28.4738 317.84 29.7395C318.19 31.0052 318.32 32.2623 318.348 33.5558C318.376 34.8494 318.225 36.1601 317.93 37.4815C317.635 38.8028 317.196 40.1347 316.578 41.4838C315.96 42.833 315.189 44.1439 314.236 45.4557C313.283 46.7676 312.122 48.1359 310.805 49.4498C309.58 50.6784 308.206 51.885 306.714 53.0466C306.364 53.3157 307.053 53.4879 307.403 53.2188C309.053 51.926 310.552 50.6112 311.863 49.2648C313.174 47.9184 314.271 46.596 315.218 45.2516C316.165 43.9072 316.93 42.5638 317.548 41.2147C318.166 39.8655 318.601 38.5174 318.861 37.2027C319.121 35.8881 319.263 34.5285 319.232 33.2187C319.201 31.9089 318.994 30.6326 318.682 29.3765C318.369 28.1204 317.875 26.8652 317.243 25.6531C316.611 24.4411 315.876 23.2654 314.969 22.1396C314.061 21.0138 313.048 19.908 311.936 18.855C310.824 17.802 309.539 16.7987 308.154 15.8482C306.77 14.8976 305.286 13.9997 303.668 13.1612C301.928 12.2615 300.051 11.4048 298.113 10.6104C296.175 9.81599 294.065 9.07139 291.928 8.38233C289.791 7.69327 287.52 7.06358 285.22 6.47316C282.919 5.88274 280.52 5.345 278.059 4.86949C275.599 4.39399 273.068 3.9319 270.479 3.54833C267.89 3.16476 265.304 2.79747 262.654 2.47615C260.004 2.15482 257.252 1.8699 254.508 1.6338C251.765 1.3977 248.952 1.17502 246.148 1.00116C243.343 0.827309 240.504 0.660162 237.639 0.548551C234.774 0.436941 231.944 0.318623 229.085 0.239564C225.858 0.146198 222.638 0.0853843 219.386 0.0475529C216.134 0.00972287 212.667 -0.00414068 209.277 0.00113315C205.887 0.00640792 202.539 0.0375281 199.161 0.107908C195.784 0.178288 192.333 0.245807 188.927 0.355448C185.52 0.465087 182.047 0.604418 178.611 0.753317C175.176 0.902217 171.711 1.09038 168.215 1.30152C164.718 1.51266 161.299 1.74294 157.808 1.98664C154.318 2.23034 150.837 2.52286 147.321 2.8221C143.805 3.12133 140.295 3.45311 136.791 3.81745C133.287 4.18179 129.749 4.55283 126.251 4.94972C122.754 5.34662 119.262 5.77606 115.739 6.22849C112.43 6.65694 109.124 7.10168 105.785 7.5694C102.447 8.03712 99.1184 8.55367 95.7957 9.10277C92.4731 9.65187 89.1535 10.2172 85.8785 10.8247C82.6034 11.4322 79.2642 12.0857 75.9694 12.7813C72.6747 13.4769 69.4245 14.2146 66.1805 14.9849C62.9365 15.7551 59.7431 16.6001 56.556 17.4775C53.3689 18.355 50.2997 19.2775 47.2399 20.2488C44.18 21.2201 41.1326 22.2565 38.1679 23.3446C35.2032 24.4327 32.2892 25.5955 29.455 26.7937C26.7552 27.9325 24.1413 29.1393 21.6423 30.3747C19.1432 31.6102 16.8646 32.8543 14.6749 34.1826C12.4853 35.5109 10.4808 36.8545 8.70613 38.2555C6.93139 39.6565 5.34501 41.0891 4.05867 42.5657C2.67923 44.1275 1.63505 45.7266 0.987168 47.3008C0.287545 48.986 -0.015817 50.6463 0.00060798 52.2625C0.0170329 53.8786 0.423603 55.4373 1.07331 56.9328C1.65058 58.2396 2.43899 59.5062 3.39707 60.7067C4.30447 61.8326 5.38467 62.9086 6.60249 63.9415C7.82031 64.9745 9.20783 65.9413 10.7299 66.8487C12.252 67.7562 13.8734 68.611 15.6293 69.4064C17.3852 70.2018 19.2436 70.9608 21.1981 71.6508C23.1527 72.3408 25.2481 73.0041 27.3693 73.6117C29.4905 74.2194 31.7845 74.7773 34.0692 75.2863C36.3539 75.7954 38.7442 76.2843 41.1955 76.711C43.6468 77.1376 46.095 77.548 48.6074 77.9125C51.1197 78.2769 53.6993 78.6116 56.2727 78.9138C58.8462 79.216 61.4486 79.4789 64.0831 79.7189C66.7175 79.9588 69.4575 80.1787 72.1592 80.3889C75.2635 80.6068 78.3678 80.8246 81.501 81.0032C84.6342 81.1818 87.8026 81.3537 91 81.4863C94.1974 81.6189 97.3917 81.7353 100.586 81.8516C103.78 81.968 107 82.0288 110.218 82.0733C113.435 82.1179 116.725 82.1653 120.006 82.1638C123.288 82.1624 126.569 82.161 129.879 82.1203C133.189 82.0796 136.496 82.0226 139.8 81.9494C143.104 81.8762 146.437 81.7637 149.77 81.6512C153.103 81.5387 156.465 81.3869 159.824 81.2189C163.183 81.0508 166.574 80.8598 169.926 80.6592C173.279 80.4586 176.696 80.2121 180.077 79.9722C183.459 79.7324 186.831 79.4437 190.239 79.1483C193.646 78.8529 197.05 78.5412 200.484 78.1903C203.917 77.8394 207.315 77.4952 210.743 77.1117C214.17 76.7282 217.341 76.3429 220.689 75.924C224.036 75.5051 227.374 75.0374 230.706 74.5371C234.038 74.0368 237.399 73.4973 240.713 72.8994C244.026 72.3014 247.333 71.671 250.628 70.9754C253.922 70.2798 257.099 69.5392 260.299 68.7268C263.498 67.9144 266.65 67.0437 269.784 66.0752C272.917 65.1068 275.9 64.1163 278.862 63.012C281.621 61.9967 284.295 60.9134 286.848 59.7689C287.319 59.561 286.829 59.2834 286.323 59.498L286.402 59.5334Z" fill="#FF0004"/>
</svg>
