<svg width="120" height="120" viewBox="0 0 120 120" fill="none" xmlns="http://www.w3.org/2000/svg">
<path d="M90.8671 10C72.0671 10.3 53.2671 10.7 34.4671 11C28.7671 11.1 22.5671 11.4 18.0671 14.9C12.2671 19.6 11.3671 28 11.0671 35.5C10.4671 49.9 9.76707 64.3 9.16707 78.7C8.96707 84.2 8.66707 89.9 10.1671 95.2C11.6671 100.5 15.0671 105.7 20.2671 107.7C22.6671 108.7 25.3671 108.9 27.9671 109.1C51.9671 111.1 76.7671 113 99.2671 104.5C101.367 103.7 103.467 102.8 104.967 101.1C106.467 99.4 107.167 97.2 107.767 95C113.067 75.5 112.167 55 111.267 34.8C111.067 29.8 110.767 24.7 108.367 20.4C105.667 15.5 103.767 10.8 90.8671 10Z" stroke="#FF0000" stroke-width="10" stroke-linecap="round" stroke-linejoin="round"/>
<path d="M60.467 34.9998C68.167 34.9998 75.467 39.4998 79.467 45.9998C83.467 52.4998 84.167 60.8998 81.467 68.0998C78.067 77.2998 69.367 84.2998 59.667 85.3998C49.967 86.4998 39.767 81.6998 34.667 73.3998C29.567 65.0998 29.967 53.6998 35.667 45.7998C39.567 40.4998 45.5671 36.7998 52.0671 35.8998C54.2671 35.5998 58.167 34.6998 60.467 34.8998" stroke="#FF0000" stroke-width="10" stroke-linecap="round" stroke-linejoin="round"/>
<path d="M91.7671 29.7998H92.0671" stroke="#FF0000" stroke-width="10" stroke-linecap="round" stroke-linejoin="round"/>
</svg>
