<svg width="120" height="120" viewBox="0 0 120 120" fill="none" xmlns="http://www.w3.org/2000/svg">
<path d="M108.235 22.0198C109.235 44.1198 110.235 66.2198 111.335 88.3198C111.535 93.8198 111.634 99.9198 108.134 104.22C104.134 109.22 96.9345 109.82 90.5345 110.12C70.0345 110.92 49.6345 111.82 29.2345 112.62C26.2345 112.72 23.1345 112.82 20.2345 112.02C17.3345 111.22 14.5345 109.22 13.6345 106.32C13.2345 105.22 13.1345 104.02 13.0345 102.82C11.1345 78.8198 9.73453 54.7198 9.03453 30.6198C8.83453 23.8198 9.33453 15.7198 15.1345 12.2198C17.3345 10.8198 20.0345 10.5198 22.6345 10.1198C46.7345 7.11979 71.1345 7.31979 95.2345 10.6198C98.4345 11.0198 101.835 11.6198 104.435 13.6198C107.235 15.8198 108.235 18.7198 108.235 21.8198" stroke="#FF0000" stroke-width="10" stroke-linecap="round" stroke-linejoin="round"/>
<path d="M31.2346 55.9199C31.3346 68.9199 31.9345 81.9199 33.0345 94.9199" stroke="#FF0000" stroke-width="10" stroke-linecap="round" stroke-linejoin="round"/>
<path d="M54.8345 54.2197C54.8345 67.9197 55.3346 81.7197 56.4346 95.3197" stroke="#FF0000" stroke-width="10" stroke-linecap="round" stroke-linejoin="round"/>
<path d="M55.6345 72.0196C56.0345 64.6196 61.0345 57.3196 67.3345 53.4196C69.7345 51.9196 72.5346 50.8196 75.4346 51.0196C79.9346 51.3196 83.9345 54.6196 86.0345 58.7196C88.1345 62.7196 88.7345 67.4196 89.1345 71.9196C89.8345 79.6196 90.1345 87.3196 90.0345 94.9196" stroke="#FF0000" stroke-width="10" stroke-linecap="round" stroke-linejoin="round"/>
<path d="M31.1345 41.0195H31.4345" stroke="#FF0000" stroke-width="10" stroke-linecap="round" stroke-linejoin="round"/>
</svg>
