<?xml version="1.0" encoding="UTF-8"?>
<svg id="Layer_2" data-name="Layer 2" xmlns="http://www.w3.org/2000/svg" viewBox="0 0 1118.97 1160.2">
  <defs>
    <style>
      .cls-1 {
        fill: red;
      }
    </style>
  </defs>
  <g id="Layer_1-2" data-name="Layer 1">
    <g>
      <g id="uuid-aa6cdbfe-2542-4a31-83cf-8970fe770cba" data-name="Layer 1-2">
        <path class="cls-1" d="M695.47,7.42c-4.82-6.93-16.56-10.2-23.89-4.53-36.2,28.19-75.46,52.82-113.53,78.72-1.84-17.57-30.99-22.11-33.67-2.44-.06.42-.12.84-.18,1.26-1.26-.92-2.44-1.84-3.7-2.68-10.46-7.58-21.15-14.74-31.84-21.97-21.83-14.7-44.25-29.11-64.24-46.07-6.99-5.88-18.07-5.21-24.3,1.48-6.23,6.69-5.57,17.44,1.42,23.41,19.99,16.97,42.41,31.38,64.24,46.07,10.51,7.08,21.03,14.16,31.3,21.59,7.39,5.36,14.97,10.88,21.14,17.48.37.39.82.7,1.27,1-2.91,30.06-4.54,60.05-5.12,90.14-30.1-21.75-61.82-41.74-92.16-62.97-7.74-5.42-15.57-10.84-22.9-16.71-7.15-5.71-17.99-5.38-24.3,1.48-6.3,6.86-5.73,17.7,1.42,23.41,15.31,12.27,32.08,23.12,48.27,34.18,21.31,14.56,42.7,29.04,63.84,43.77,8.19,5.73,16.47,11.45,24.34,17.62.45.3.89.53,1.26.84.77,69.36,6.53,138.66,14.18,207.69-2.35-.36-4.62-.8-6.89-1.32-1.4-.33-2.71-.67-4.12-1.08-.17.01-1.23-.34-1.84-.55-.71-.29-2.74-1.08-2.73-1-1.06-.43-2.04-.87-3.01-1.31-2.48-1.18-4.89-2.44-7.22-3.88-3.04-1.81-6.6-2.26-10.01-1.63-4.66-7.19-16.44-8.13-23.24-3.73-8.46,5.41-9.08,15.08-4.8,23.04,25.45,47.27,56,91.9,86.36,136.3,7.95,11.64,22.96,7.74,28.96-1.35,3.15-2.02,5.71-5.25,6.72-9.96,10.37-47.7,28.84-94.07,51.53-137.54,8.95-17.15-14.71-30.74-26.88-19.79-.5.28-1,.56-1.41.92-3.86,3.14-7.99,6.05-12.31,8.64-2.25,1.3-4.5,2.6-6.84,3.74-.25.1-.42.19-.59.28h-.17c-1.34.59-2.68,1.25-4.03,1.75-4.96,2.04-10.11,3.85-15.28,5.25-2.54.74-5.09,1.31-7.73,1.88-7.59-68.2-13.48-136.66-14.37-205.1.74-.54,1.49-1.09,2.22-1.71,4.82-4.28,7.13-6.08,13.38-11.02,5.6-4.33,11.28-8.57,17.06-12.74,12.3-8.88,24.88-17.45,37.46-25.94,19.38-12.88,39.41-25.06,58.23-38.66,7.43-5.35,10.1-15.31,4.8-23.04-4.92-7.17-16.37-9.88-23.89-4.53-35.83,25.84-74.21,48.01-109.21,74.72.5-28.59,2.13-57.16,4.96-85.73.25-.18.5-.28.75-.38,45.02-32.04,92.91-60.61,136.44-94.55,7.24-5.67,10.29-15.07,4.8-23.04l.02.33ZM532.38,494.21c1.06,8.9,2.12,17.89,3.18,26.79-6.18-9.59-12.2-19.18-18.13-28.87,4.89,1.03,9.93,1.72,14.95,2.08ZM585.4,487.58c-5.37,12.36-10.29,24.95-14.77,37.68-1.36-10.96-2.63-22.01-3.99-32.97,6.31-1.13,12.59-2.67,18.68-4.62l.08-.09Z"/>
      </g>
      <path class="cls-1" d="M894.26,142l60.08,51.51-92.96,229.56-42.06-36.06,16.24-41.25-74.11-63.52-38.27,22.34-42.06-36.04,213.14-126.54ZM852.72,307.49l42.36-103.11-2.5-2.14-95.94,57.18,56.08,48.08Z"/>
      <path class="cls-1" d="M1093.19,393.62l22.88,109.76c3.72,17.86,3.86,34.16.42,48.92-3.45,14.76-10.1,27.03-19.95,36.83-9.86,9.8-22.33,16.28-37.39,19.41-12.27,2.56-23.96,2.13-35.12-1.27-11.15-3.4-20.84-9.24-29.08-17.51-8.24-8.28-14.4-18.4-18.45-30.35l-.86-2.51-69.23,91.23-12.79-61.33,66.98-82.68-5.39-25.83-80.7,16.83-11.17-53.6,229.85-47.91ZM1003.2,519.49c2.73,13.12,8.1,22.95,16.09,29.49,7.99,6.53,17.47,8.66,28.45,6.37,10.75-2.24,18.48-8.01,23.17-17.3,4.69-9.28,5.69-20.38,3-33.3l-10.23-49.07-70.69,14.74,10.22,49.07Z"/>
      <path class="cls-1" d="M1103.16,768.17l-54.49,98c-8.86,15.94-19.42,28.38-31.67,37.29-12.25,8.91-25.3,13.85-39.18,14.81-13.87.97-27.52-2.29-40.97-9.76-10.95-6.09-19.53-14.07-25.75-23.94-6.21-9.86-9.72-20.62-10.54-32.27-.82-11.65,1.14-23.32,5.88-35.03l1-2.46-112.06,23.73,30.46-54.76,104.74-18.74,12.82-23.05-72.06-40.06,26.6-47.85,205.21,114.07ZM952.77,804.55c-6.51,11.72-8.88,22.67-7.11,32.83,1.76,10.16,7.54,17.96,17.34,23.41,9.6,5.34,19.22,6.03,28.85,2.08,9.62-3.96,17.63-11.7,24.04-23.24l24.35-43.81-63.12-35.09-24.35,43.81Z"/>
      <path class="cls-1" d="M758.42,860.01c22.17-.8,42.58,4.26,61.26,15.17,18.66,10.9,34.06,27.08,46.19,48.5,12.03,21.24,17.84,42.7,17.48,64.37-.36,21.68-6.57,41.85-18.6,60.54-12.03,18.68-29.06,34.24-51.06,46.69-22,12.45-44.12,19.02-66.33,19.72-22.21.69-42.7-4.39-61.48-15.24-18.76-10.85-34.15-26.89-46.17-48.13-12.13-21.44-18.06-42.97-17.79-64.58.28-21.63,6.46-41.72,18.54-60.31,12.1-18.59,29.24-34.16,51.43-46.72,22.2-12.56,44.38-19.24,66.53-20.02M685.31,947.4c-6.69,11.37-9.9,23.79-9.6,37.26.28,13.47,4.17,26.81,11.65,40.01,7.47,13.21,16.87,23.36,28.21,30.45,11.35,7.1,23.62,10.69,36.81,10.81,13.2.11,26.1-3.4,38.74-10.54,12.63-7.14,22.29-16.4,29-27.77,6.71-11.37,9.93-23.74,9.68-37.12-.24-13.38-4.1-26.66-11.56-39.86-7.48-13.21-16.91-23.4-28.31-30.59-11.38-7.2-23.69-10.85-36.88-10.96-13.2-.11-26.11,3.4-38.74,10.54-12.63,7.14-22.29,16.4-29,27.77"/>
      <polygon class="cls-1" points="566.07 1160.2 514.65 1143.43 524.95 951.18 521.8 950.16 419.34 1112.37 364.47 1094.49 377.59 903.15 374.45 902.14 269.48 1063.52 218.07 1046.76 352.58 843.67 426.57 867.78 412.67 1034.94 415.81 1035.96 503.08 892.72 577.06 916.84 566.07 1160.2"/>
      <path class="cls-1" d="M402.71,309.85l-41.56,35.64-53.66-62.58-20.03,17.18,2.61,106.37-47.56,40.79.82-114.52-2.22,1.46c-10.5,7-21.55,11.25-33.12,12.78-11.57,1.52-22.83.23-33.74-3.88-10.91-4.1-20.44-10.92-28.6-20.43-10.01-11.68-15.94-24.41-17.76-38.19-1.84-13.78.4-27.56,6.67-41.35,6.28-13.78,16.35-26.62,30.19-38.5l85.1-72.98,152.86,178.21ZM282.37,253.63l-47.01-54.82-38.05,32.64c-10.01,8.58-15.98,17.98-17.94,28.21-1.96,10.22.65,19.5,7.8,27.84,7.3,8.51,16.12,12.62,26.42,12.32,10.32-.31,20.56-4.82,30.73-13.56l38.05-32.63Z"/>
      <polygon class="cls-1" points="262.4 478.31 230.25 651.78 186.8 643.73 209.21 522.78 154.09 512.57 133.91 621.51 95.97 614.48 116.16 505.54 65.26 496.1 43.43 613.8 0 605.75 31.54 435.53 262.4 478.31"/>
      <path class="cls-1" d="M244.42,675.25l32.53,81.81c9.9,24.93,14.1,48.7,12.56,71.31-1.53,22.6-8.46,42.4-20.76,59.35-12.3,16.96-29.29,29.74-50.94,38.35-21.65,8.61-42.76,10.98-63.36,7.09-20.59-3.87-39.21-13.51-55.84-28.89-16.65-15.38-29.93-35.54-39.83-60.45l-32.54-81.82,218.18-86.75ZM224.32,740.73l-138.5,55.08,12.79,32.17c5.93,14.91,14.02,26.9,24.24,35.96,10.23,9.07,21.8,14.65,34.68,16.73,12.9,2.08,26.29.37,40.19-5.15,14.1-5.6,25.11-13.59,33.05-23.97,7.93-10.37,12.47-22.34,13.57-35.91,1.12-13.57-1.3-27.81-7.23-42.73l-12.79-32.17Z"/>
    </g>
  </g>
</svg>