<svg width="1119" height="1161" viewBox="0 0 1119 1161" fill="none" xmlns="http://www.w3.org/2000/svg">
<path d="M695.47 7.4248C690.65 0.494796 678.91 -2.7752 671.58 2.8948C635.38 31.0848 596.12 55.7148 558.05 81.6148C556.21 64.0448 527.06 59.5048 524.38 79.1748C524.32 79.5948 524.26 80.0148 524.2 80.4348C522.94 79.5148 521.76 78.5948 520.5 77.7548C510.04 70.1748 499.35 63.0148 488.66 55.7848C466.83 41.0848 444.41 26.6748 424.42 9.7148C417.43 3.8348 406.35 4.5048 400.12 11.1948C393.89 17.8848 394.55 28.6348 401.54 34.6048C421.53 51.5748 443.95 65.9848 465.78 80.6748C476.29 87.7548 486.81 94.8348 497.08 102.265C504.47 107.625 512.05 113.145 518.22 119.745C518.59 120.135 519.04 120.445 519.49 120.745C516.58 150.805 514.95 180.795 514.37 210.885C484.27 189.135 452.55 169.145 422.21 147.915C414.47 142.495 406.64 137.075 399.31 131.205C392.16 125.495 381.32 125.825 375.01 132.685C368.71 139.545 369.28 150.385 376.43 156.095C391.74 168.365 408.51 179.215 424.7 190.275C446.01 204.835 467.4 219.315 488.54 234.045C496.73 239.775 505.01 245.495 512.88 251.665C513.33 251.965 513.77 252.195 514.14 252.505C514.91 321.865 520.67 391.165 528.32 460.195C525.97 459.835 523.7 459.395 521.43 458.875C520.03 458.545 518.72 458.205 517.31 457.795C517.14 457.805 516.08 457.455 515.47 457.245C514.76 456.955 512.73 456.165 512.74 456.245C511.68 455.815 510.7 455.375 509.73 454.935C507.25 453.755 504.84 452.495 502.51 451.055C499.47 449.245 495.91 448.795 492.5 449.425C487.84 442.235 476.06 441.295 469.26 445.695C460.8 451.105 460.18 460.775 464.46 468.735C489.91 516.005 520.46 560.635 550.82 605.035C558.77 616.675 573.78 612.775 579.78 603.685C582.93 601.665 585.49 598.435 586.5 593.725C596.87 546.025 615.34 499.655 638.03 456.185C646.98 439.035 623.32 425.445 611.15 436.395C610.65 436.675 610.15 436.955 609.74 437.315C605.88 440.455 601.75 443.365 597.43 445.955C595.18 447.255 592.93 448.555 590.59 449.695C590.34 449.795 590.17 449.885 590 449.975H589.83C588.49 450.565 587.15 451.225 585.8 451.725C580.84 453.765 575.69 455.575 570.52 456.975C567.98 457.715 565.43 458.285 562.79 458.855C555.2 390.655 549.31 322.195 548.42 253.755C549.16 253.215 549.91 252.665 550.64 252.045C555.46 247.765 557.77 245.965 564.02 241.025C569.62 236.695 575.3 232.455 581.08 228.285C593.38 219.405 605.96 210.835 618.54 202.345C637.92 189.465 657.95 177.285 676.77 163.685C684.2 158.335 686.87 148.375 681.57 140.645C676.65 133.475 665.2 130.765 657.68 136.115C621.85 161.955 583.47 184.125 548.47 210.835C548.97 182.245 550.6 153.675 553.43 125.105C553.68 124.925 553.93 124.825 554.18 124.725C599.2 92.6848 647.09 64.1148 690.62 30.1748C697.86 24.5048 700.91 15.1048 695.42 7.1348L695.44 7.4648L695.47 7.4248ZM532.38 494.215C533.44 503.115 534.5 512.105 535.56 521.005C529.38 511.415 523.36 501.825 517.43 492.135C522.32 493.165 527.36 493.855 532.38 494.215ZM585.4 487.585C580.03 499.945 575.11 512.535 570.63 525.265C569.27 514.305 568 503.255 566.64 492.295C572.95 491.165 579.23 489.625 585.32 487.675L585.4 487.585Z" fill="white"/>
<path d="M894.26 142.005L954.34 193.515L861.38 423.075L819.32 387.015L835.56 345.765L761.45 282.245L723.18 304.585L681.12 268.545L894.26 142.005ZM852.72 307.495L895.08 204.385L892.58 202.245L796.64 259.425L852.72 307.505V307.495Z" fill="white"/>
<path d="M1093.19 393.625L1116.07 503.385C1119.79 521.245 1119.93 537.545 1116.49 552.305C1113.04 567.065 1106.39 579.335 1096.54 589.135C1086.68 598.935 1074.21 605.415 1059.15 608.545C1046.88 611.105 1035.19 610.675 1024.03 607.275C1012.88 603.875 1003.19 598.035 994.95 589.765C986.71 581.485 980.55 571.365 976.5 559.415L975.64 556.905L906.41 648.135L893.62 586.805L960.6 504.125L955.21 478.295L874.51 495.125L863.34 441.525L1093.19 393.615V393.625ZM1003.2 519.495C1005.93 532.615 1011.3 542.445 1019.29 548.985C1027.28 555.515 1036.76 557.645 1047.74 555.355C1058.49 553.115 1066.22 547.345 1070.91 538.055C1075.6 528.775 1076.6 517.675 1073.91 504.755L1063.68 455.685L992.99 470.425L1003.21 519.495H1003.2Z" fill="white"/>
<path d="M1103.16 768.175L1048.67 866.175C1039.81 882.115 1029.25 894.555 1017 903.465C1004.75 912.375 991.7 917.315 977.82 918.275C963.95 919.245 950.3 915.985 936.85 908.515C925.9 902.425 917.32 894.445 911.1 884.575C904.89 874.715 901.38 863.955 900.56 852.305C899.74 840.655 901.7 828.985 906.44 817.275L907.44 814.815L795.38 838.545L825.84 783.785L930.58 765.045L943.4 741.995L871.34 701.935L897.94 654.085L1103.15 768.155L1103.16 768.175ZM952.77 804.555C946.26 816.275 943.89 827.225 945.66 837.385C947.42 847.545 953.2 855.345 963 860.795C972.6 866.135 982.22 866.825 991.85 862.875C1001.47 858.915 1009.48 851.175 1015.89 839.635L1040.24 795.825L977.12 760.735L952.77 804.545V804.555Z" fill="white"/>
<path d="M758.42 860.015C780.59 859.215 801 864.275 819.68 875.185C838.34 886.085 853.74 902.265 865.87 923.685C877.9 944.925 883.71 966.385 883.35 988.055C882.99 1009.73 876.78 1029.9 864.75 1048.59C852.72 1067.27 835.69 1082.84 813.69 1095.29C791.69 1107.74 769.57 1114.31 747.36 1115.01C725.15 1115.7 704.66 1110.62 685.88 1099.77C667.12 1088.92 651.73 1072.88 639.71 1051.64C627.58 1030.2 621.65 1008.67 621.92 987.055C622.2 965.425 628.38 945.335 640.46 926.745C652.56 908.155 669.7 892.585 691.89 880.025C714.09 867.465 736.27 860.785 758.42 860.005M685.31 947.405C678.62 958.775 675.41 971.195 675.71 984.665C675.99 998.135 679.88 1011.48 687.36 1024.68C694.83 1037.89 704.23 1048.03 715.57 1055.12C726.92 1062.22 739.19 1065.82 752.38 1065.94C765.58 1066.05 778.48 1062.54 791.12 1055.4C803.75 1048.26 813.41 1038.99 820.12 1027.62C826.83 1016.26 830.05 1003.89 829.8 990.505C829.56 977.125 825.7 963.845 818.24 950.645C810.76 937.435 801.33 927.245 789.93 920.055C778.55 912.855 766.24 909.205 753.05 909.095C739.85 908.985 726.94 912.495 714.31 919.635C701.68 926.775 692.02 936.035 685.31 947.405Z" fill="white"/>
<path d="M566.07 1160.2L514.65 1143.43L524.95 951.185L521.8 950.165L419.34 1112.37L364.47 1094.49L377.59 903.155L374.45 902.145L269.48 1063.52L218.07 1046.76L352.58 843.675L426.57 867.785L412.67 1034.94L415.81 1035.96L503.08 892.725L577.06 916.845L566.07 1160.2Z" fill="white"/>
<path d="M402.71 309.855L361.15 345.495L307.49 282.915L287.46 300.095L290.07 406.465L242.51 447.255L243.33 332.735L241.11 334.195C230.61 341.195 219.56 345.445 207.99 346.975C196.42 348.495 185.16 347.205 174.25 343.095C163.34 338.995 153.81 332.175 145.65 322.665C135.64 310.985 129.71 298.255 127.89 284.475C126.05 270.695 128.29 256.915 134.56 243.125C140.84 229.345 150.91 216.505 164.75 204.625L249.85 131.645L402.71 309.855ZM282.37 253.635L235.36 198.815L197.31 231.455C187.3 240.035 181.33 249.435 179.37 259.665C177.41 269.885 180.02 279.165 187.17 287.505C194.47 296.015 203.29 300.125 213.59 299.825C223.91 299.515 234.15 295.005 244.32 286.265L282.37 253.635Z" fill="white"/>
<path d="M262.4 478.315L230.25 651.785L186.8 643.735L209.21 522.785L154.09 512.575L133.91 621.515L95.97 614.485L116.16 505.545L65.26 496.105L43.43 613.805L0 605.755L31.54 435.535L262.4 478.315Z" fill="white"/>
<path d="M244.42 675.255L276.95 757.065C286.85 781.995 291.05 805.765 289.51 828.375C287.98 850.975 281.05 870.775 268.75 887.725C256.45 904.685 239.46 917.465 217.81 926.075C196.16 934.685 175.05 937.055 154.45 933.165C133.86 929.295 115.24 919.655 98.6102 904.275C81.9602 888.895 68.6802 868.735 58.7802 843.825L26.2402 762.005L244.42 675.255ZM224.32 740.735L85.8202 795.815L98.6102 827.985C104.54 842.895 112.63 854.885 122.85 863.945C133.08 873.015 144.65 878.595 157.53 880.675C170.43 882.755 183.82 881.045 197.72 875.525C211.82 869.925 222.83 861.935 230.77 851.555C238.7 841.185 243.24 829.215 244.34 815.645C245.46 802.075 243.04 787.835 237.11 772.915L224.32 740.745V740.735Z" fill="white"/>
</svg>
